<?xml version="1.0" encoding="utf-8"?>
<!-- Generator: Adobe Illustrator 23.0.1, SVG Export Plug-In . SVG Version: 6.00 Build 0)  -->
<svg version="1.1" id="Layer_1" xmlns="http://www.w3.org/2000/svg" xmlns:xlink="http://www.w3.org/1999/xlink" x="0px" y="0px"
	 viewBox="0 0 1024 768" style="enable-background:new 0 0 1024 768;" xml:space="preserve">
<style type="text/css">
	.st0{fill:#FFFFFF;stroke:#999999;stroke-width:64;stroke-miterlimit:10;}
</style>
<path class="st0" d="M849.9,678.5H174.1c-27.4,0-49.6-22.2-49.6-49.6V139.1c0-27.4,22.2-49.6,49.6-49.6h200h24.3h451.5
	c27.4,0,49.6,22.2,49.6,49.6v489.8C899.5,656.3,877.3,678.5,849.9,678.5z"/>
<path d="M511,212.7c-104.2,0-189,84.8-189,189v63c0,26,6.5,51.8,18.8,74.6c1.4,2.5,4,4.1,6.9,4.1h38.7c3.3,9.1,11.9,15.7,22.2,15.7
	c13,0,23.6-10.6,23.6-23.6V393.9c0-13-10.6-23.6-23.6-23.6c-10.3,0-18.9,6.6-22.2,15.7h-38.7c-2.9,0-5.6,1.6-6.9,4.1
	c-1,1.9-1.8,4-2.7,6c1.4-42.7,18.3-81.5,45.2-111l16.4,16.4c3.1,3.1,8.1,3.1,11.1,0C437.5,274.7,473.1,260,511,260
	s73.5,14.8,100.2,41.5c1.5,1.5,3.6,2.3,5.6,2.3s4-0.8,5.6-2.3l16.4-16.4c27,29.5,43.8,68.3,45.2,111c-1-2-1.7-4-2.7-6
	c-1.4-2.5-4-4.1-6.9-4.1h-38.7c-3.3-9.1-11.9-15.7-22.2-15.7c-13,0-23.6,10.6-23.6,23.6v141.8c0,13,10.6,23.6,23.6,23.6
	c10.3,0,18.9-6.6,22.2-15.7h38.7c2.9,0,5.6-1.6,6.9-4.1c12.3-22.8,18.8-48.6,18.8-74.6v-63C700,297.5,615.2,212.7,511,212.7z"/>
</svg>
