<?xml version="1.0" encoding="utf-8"?>
<!-- Generator: Adobe Illustrator 23.0.1, SVG Export Plug-In . SVG Version: 6.00 Build 0)  -->
<svg version="1.1" id="Layer_1" xmlns="http://www.w3.org/2000/svg" xmlns:xlink="http://www.w3.org/1999/xlink" x="0px" y="0px"
	 viewBox="0 0 1024 768" style="enable-background:new 0 0 1024 768;" xml:space="preserve">
<style type="text/css">
	.st0{fill:#FFFFFF;stroke:#999999;stroke-width:64;stroke-miterlimit:10;}
	.st1{fill:#D61716;}
	.st2{fill:#878482;}
	.st3{fill:#54504F;}
	.st4{fill:#FFFFFF;}
</style>
<path class="st0" d="M849.9,678.5H174.1c-27.4,0-49.6-22.2-49.6-49.6V139.1c0-27.4,22.2-49.6,49.6-49.6h200h24.3h451.5
	c27.4,0,49.6,22.2,49.6,49.6v489.8C899.5,656.3,877.3,678.5,849.9,678.5z"/>
<path class="st1" d="M720.2,457.2c-0.3-3.1-3.1-38.7-66.4-37.2c-63.3,1.5-78.7,5.5-78.7,5.5s-47.3-47.9-64.5-85.1
	c0,0,20.9-61.2,20-99.6c-0.9-38.4-10.1-60.5-39.6-60.2c-29.5,0.3-33.8,26.1-29.9,64.6c3.5,34.5,21.3,75,21.3,75
	s-13.6,42.4-31.7,84.6c-18,42.2-30.3,64.3-30.3,64.3s-61,20.4-87.4,45c-26.4,24.6-37.2,43.5-23.3,62.4c12,16.3,54,20,91.5-29.2
	c37.5-49.2,54.4-79.9,54.4-79.9s57.2-15.7,75-20c17.8-4.3,39.3-7.7,39.3-7.7s52.2,52.6,102.7,50.7
	C723,488.6,720.6,460.3,720.2,457.2 M322.9,568.2c-31.4-18.7,65.8-76.5,83.3-78.4C406.2,489.8,355.7,587.8,322.9,568.2z M471.9,231
	c0-30.4,9.8-38.7,17.5-38.7c7.7,0,16.3,3.7,16.6,30.1c0.3,26.4-16.6,78.1-16.6,78.1C483.6,294.3,471.9,261.4,471.9,231z
	 M512.4,439.4c-31.4,7.7-47.2,15.7-47.2,15.7s0,0,12.9-28.9s26.1-68.2,26.1-68.2c17.8,33.2,53.2,72.2,53.2,72.2
	S543.8,431.7,512.4,439.4z M588,436.7c0,0,102.2-18.5,102.2,16.4C690.2,488,626.9,473.8,588,436.7z"/>
<g>
	<polyline class="st2" points="156.9,184.3 62.4,184.3 62.4,273.3 359.8,273.3 359.8,184.3 156.9,184.3 	"/>
	<rect x="64.3" y="182.7" class="st1" width="297.1" height="89.1"/>
	<g>
		<g>
			<path class="st3" d="M217.4,227.7c-0.4,0-0.8,0-1.2,0v-19.3h2.5c2.9,0,4.7,0.9,6,2.4c1.6,1.8,2.4,5,2.4,7.3c0,3.2,0,6.1-2.9,8.2
				C222.6,227.3,220.1,227.7,217.4,227.7 M219.8,197.8c-0.1,0-0.3,0-0.4,0c-1.3,0-2.2,0-2.7,0h-13.9v62.6h13.4v-21.2l3,0.2
				c3.1,0,5.9-0.7,8.4-1.5c2.5-0.8,4.6-2.2,6.4-3.8c1.8-1.6,3.5-3.6,4.4-5.9c1.4-3.5,1.7-8.4,1.4-11.8c-0.4-3.4-0.5-6.2-1.5-8.4
				c-1-2.2-2.3-4-3.8-5.4c-1.6-1.4-3.3-2.4-5.1-3.1c-1.9-0.7-3.6-1.1-5.4-1.4C222.4,197.9,221.1,197.8,219.8,197.8"/>
			<path class="st4" d="M216.4,226.7c-0.4,0-0.8,0-1.2,0v-19.3h2.5c2.9,0,4.7,0.9,6,2.4c1.6,1.8,2.4,5,2.4,7.3c0,3.2,0,6.1-2.9,8.2
				C221.6,226.3,219.1,226.7,216.4,226.7 M218.8,196.8c-0.1,0-0.3,0-0.4,0c-1.3,0-2.2,0-2.7,0h-13.9v62.6h13.4v-21.2l3,0.2
				c3.1,0,5.9-0.7,8.4-1.5c2.5-0.8,4.6-2.2,6.4-3.8c1.8-1.6,3.5-3.6,4.4-5.9c1.4-3.5,1.7-8.4,1.4-11.8c-0.4-3.4-0.5-6.2-1.5-8.4
				c-1-2.2-2.3-4-3.8-5.4c-1.6-1.4-3.3-2.4-5.1-3.1c-1.9-0.7-3.6-1.1-5.4-1.4C221.4,196.9,220.1,196.8,218.8,196.8"/>
		</g>
		<g>
			<path class="st3" d="M262.8,248.9c-0.4,0-0.8,0-1.3,0V209c0.1,0,0.1,0,0.2,0c2.7,0,6.1,0,7.8,1.4c1.8,1.4,3.2,3.2,4.2,5.2
				c1,2.1,1.7,4.4,1.8,6.9c0.1,2.9,0,5.2,0,7.2c0,1.9,0,4.3-0.4,6.7c-0.4,2.4-1.2,4.5-2.2,6.6c-1.1,2-3,3.4-4.7,4.7
				C266.8,248.6,265,248.9,262.8,248.9 M265.2,197.6c-1.4,0-2.9,0.1-3.8,0.1c-1.7,0.1-2.7,0.1-3.1,0.1h-10.2v62.6h12
				c5.3,0,9.7-0.8,13.4-2.3c3.7-1.5,6.6-3.7,8.9-6.4c2.2-2.7,3.9-6,4.9-9.8c1-3.8,1.5-7.9,1.5-12.4c0-5.8,0-10.3-1.1-14.7
				c-1-4-3.1-7.2-5.3-9.6c-2.1-2.4-4.5-4.1-7-5.2c-2.5-1.1-4.9-1.9-7.2-2.3C267.3,197.7,266.2,197.6,265.2,197.6"/>
			<path class="st4" d="M261.8,247.9c-0.4,0-0.8,0-1.3,0V208c0.1,0,0.1,0,0.2,0c2.7,0,6.1,0,7.8,1.4c1.8,1.4,3.2,3.2,4.2,5.2
				c1,2.1,1.7,4.4,1.8,6.9c0.1,2.9,0,5.2,0,7.2c0,1.9,0,4.3-0.4,6.7c-0.4,2.4-1.2,4.5-2.2,6.6c-1.1,2-3,3.4-4.7,4.7
				C265.8,247.6,264,247.9,261.8,247.9 M264.2,196.6c-1.4,0-2.9,0.1-3.8,0.1c-1.7,0.1-2.7,0.1-3.1,0.1h-10.2v62.6h12
				c5.3,0,9.7-0.8,13.4-2.3c3.7-1.5,6.6-3.7,8.9-6.4c2.2-2.7,3.9-6,4.9-9.8c1-3.8,1.5-7.9,1.5-12.4c0-5.8,0-10.3-1.1-14.7
				c-1-4-3.1-7.2-5.3-9.6c-2.1-2.4-4.5-4.1-7-5.2c-2.5-1.1-4.9-1.9-7.2-2.3C266.3,196.7,265.2,196.6,264.2,196.6"/>
		</g>
		<g>
			<polyline class="st3" points="329.1,197.8 297.4,197.8 297.4,260.5 310.8,260.5 310.8,235.6 327.7,235.6 327.7,224 310.8,224 
				310.8,209.5 329.1,209.5 329.1,197.8 			"/>
			<polyline class="st4" points="328.1,196.8 296.4,196.8 296.4,259.5 309.8,259.5 309.8,234.6 326.7,234.6 326.7,223 309.8,223 
				309.8,208.5 328.1,208.5 328.1,196.8 			"/>
		</g>
	</g>
</g>
</svg>
