<?xml version="1.0" encoding="utf-8"?>
<svg xmlns="http://www.w3.org/2000/svg" xmlns:xlink="http://www.w3.org/1999/xlink" style="margin: auto; background: transparent; display: block;" width="200px" height="200px" viewBox="0 0 100 100" preserveAspectRatio="xMidYMid">
<g transform="rotate(0 50 50)">
  <rect x="48.5" y="30" rx="0" ry="0" width="3" height="8" fill="#b7b7b7">
    <animate attributeName="opacity" values="1;0" keyTimes="0;1" dur="2s" begin="-1.8s" repeatCount="indefinite"></animate>
  </rect>
</g><g transform="rotate(36 50 50)">
  <rect x="48.5" y="30" rx="0" ry="0" width="3" height="8" fill="#b7b7b7">
    <animate attributeName="opacity" values="1;0" keyTimes="0;1" dur="2s" begin="-1.6s" repeatCount="indefinite"></animate>
  </rect>
</g><g transform="rotate(72 50 50)">
  <rect x="48.5" y="30" rx="0" ry="0" width="3" height="8" fill="#b7b7b7">
    <animate attributeName="opacity" values="1;0" keyTimes="0;1" dur="2s" begin="-1.4s" repeatCount="indefinite"></animate>
  </rect>
</g><g transform="rotate(108 50 50)">
  <rect x="48.5" y="30" rx="0" ry="0" width="3" height="8" fill="#b7b7b7">
    <animate attributeName="opacity" values="1;0" keyTimes="0;1" dur="2s" begin="-1.2s" repeatCount="indefinite"></animate>
  </rect>
</g><g transform="rotate(144 50 50)">
  <rect x="48.5" y="30" rx="0" ry="0" width="3" height="8" fill="#b7b7b7">
    <animate attributeName="opacity" values="1;0" keyTimes="0;1" dur="2s" begin="-1s" repeatCount="indefinite"></animate>
  </rect>
</g><g transform="rotate(180 50 50)">
  <rect x="48.5" y="30" rx="0" ry="0" width="3" height="8" fill="#b7b7b7">
    <animate attributeName="opacity" values="1;0" keyTimes="0;1" dur="2s" begin="-0.8s" repeatCount="indefinite"></animate>
  </rect>
</g><g transform="rotate(216 50 50)">
  <rect x="48.5" y="30" rx="0" ry="0" width="3" height="8" fill="#b7b7b7">
    <animate attributeName="opacity" values="1;0" keyTimes="0;1" dur="2s" begin="-0.6s" repeatCount="indefinite"></animate>
  </rect>
</g><g transform="rotate(252 50 50)">
  <rect x="48.5" y="30" rx="0" ry="0" width="3" height="8" fill="#b7b7b7">
    <animate attributeName="opacity" values="1;0" keyTimes="0;1" dur="2s" begin="-0.4s" repeatCount="indefinite"></animate>
  </rect>
</g><g transform="rotate(288 50 50)">
  <rect x="48.5" y="30" rx="0" ry="0" width="3" height="8" fill="#b7b7b7">
    <animate attributeName="opacity" values="1;0" keyTimes="0;1" dur="2s" begin="-0.2s" repeatCount="indefinite"></animate>
  </rect>
</g><g transform="rotate(324 50 50)">
  <rect x="48.5" y="30" rx="0" ry="0" width="3" height="8" fill="#b7b7b7">
    <animate attributeName="opacity" values="1;0" keyTimes="0;1" dur="2s" begin="0s" repeatCount="indefinite"></animate>
  </rect>
</g>
</svg>
