<?xml version="1.0" encoding="utf-8"?>
<svg version="1.1" id="Layer_1" xmlns="http://www.w3.org/2000/svg" xmlns:xlink="http://www.w3.org/1999/xlink" x="0px" y="0px"
	 viewBox="0 0 1024 768" style="enable-background:new 0 0 1024 768;" xml:space="preserve">
<style type="text/css">
	.st0{fill:#FFFFFF;stroke:#999999;stroke-width:64;stroke-miterlimit:10;}
</style>
<path class="st0" d="M849.9,678.5H174.1c-27.4,0-49.6-22.2-49.6-49.6V139.1c0-27.4,22.2-49.6,49.6-49.6h200h24.3h451.5
	c27.4,0,49.6,22.2,49.6,49.6v489.8C899.5,656.3,877.3,678.5,849.9,678.5z"/>
<path d="M716,289.9l-124,56.4v-57.8c0-23-18.6-41.6-41.6-41.6H349.6c-23,0-41.6,18.6-41.6,41.6v194.8c0,23,18.6,41.6,41.6,41.6
	h200.8c23,0,41.6-18.6,41.6-41.6v-77l124,61.6V289.9z"/>
</svg>
